<svg xmlns="http://www.w3.org/2000/svg" viewBox="0 0 269.4 318.5"><defs><style>      .cls-1 {        fill: #fff;        fill-rule: evenodd;      }    </style></defs><g><g id="Layer_1"><path class="cls-1" d="M163.2,199.7c-2.5,2.2-5.7,3.2-8.9,3.6-11.2,1.2-20.1-5.9-23.5-16-4.7-13.8,1.6-28.6,14.9-35.5,17.3-8.9,37.7-3.8,49.2,12.6,6.4,9.1,9.3,19.4,8.3,30.5-1.8,21.4-13.5,35.8-32.9,43.9-27.3,11.3-59,1.3-75.5-23.2-7-10.4-11.3-21.9-12.7-34.3-2.3-21.9,3.4-41.5,17.4-58.5,12.6-15.4,29.2-24.6,48.4-29.2,8.4-2,16.9-2.8,25.5-2.5,23.6,1.1,44.3,9.6,61.7,25.6,15.4,14.1,25,31.6,30.4,51.6,3,11.1,4.3,22.5,3.9,34-1.2,30.2-12.2,56.3-33.4,77.9-16.9,17.3-37.6,28-60.8,34-13.4,3.5-27,4.8-40.8,4.1-34.3-1.8-63.8-14.6-88.9-38-15-14-25.6-30.8-33-49.9-4.7-12-8.3-24.3-10.2-37-1.1-7.2-1.8-14.5-2.1-21.7-1.1-24,2.9-47.2,11.7-69.6,9.7-24.7,25-45.3,45.7-61.9,19.3-15.5,41.3-25.6,65.1-32,12.2-3.3,24.6-5.4,37.1-6.8,12.3-1.3,24.6-1.9,37-1.4-.8.1-1.6.3-2.4.4-.8.2-1.7.3-2.5.4-22.5,3.7-44.5,9.3-65.6,18.3-17.1,7.3-33,16.5-47,28.7-21.9,19.1-36.2,42.7-42.7,71.1-2,8.9-3.2,18-3.4,27.1-.7,24.8,3.8,48.5,14.8,70.8,13,26.4,33.7,44,61.9,52.5,12.3,3.7,25,4.8,37.8,3.3,17.4-2,33.3-7.8,47.2-18.6,15.2-11.8,24.5-27.3,27.3-46.4,2.8-20-1.3-38.5-13.7-54.7-7.7-10-18-16.1-30.3-18.9-12.8-3-25.2-1.8-37.1,4-11.9,5.9-20.2,15.1-23.3,28.1-3.4,14.2-1,27.4,8.8,38.5,12.8,14.4,35.9,14.9,49.1,1.4,5.6-5.7,7.7-12.8,7.3-20.6-.3-7-2.5-13.4-7.6-18.4-5.1-4.9-11.4-6.8-18.3-6.4-5.4.3-10.2,2.2-14.2,5.9-9.7,8.9-8.1,25.9,3.1,32.2,5.2,2.9,10.6,3.1,16.1,1.2.4-.1.8-.3,1.1-.5h0Z"></path></g></g></svg>