<svg xmlns="http://www.w3.org/2000/svg" viewBox="0 0 1676.7 333.1"><defs><style>      .cls-1, .cls-2 {        fill: #58616a;      }      .cls-2 {        fill-rule: evenodd;      }    </style></defs><g><g id="Layer_1"><path class="cls-2" d="M172.6,209.1c-2.5,2.2-5.7,3.2-8.9,3.6-11.2,1.2-20.1-5.9-23.5-16-4.7-13.8,1.6-28.6,14.9-35.5,17.3-8.9,37.7-3.8,49.2,12.6,6.4,9.1,9.3,19.4,8.3,30.5-1.8,21.4-13.5,35.8-32.9,43.9-27.3,11.3-59,1.3-75.5-23.2-7-10.4-11.3-21.9-12.7-34.3-2.3-21.9,3.4-41.5,17.4-58.5,12.6-15.4,29.2-24.6,48.4-29.2,8.4-2,16.9-2.8,25.5-2.5,23.6,1.1,44.3,9.6,61.7,25.6,15.4,14.1,25,31.6,30.4,51.6,3,11.1,4.3,22.5,3.9,34-1.2,30.2-12.2,56.3-33.4,77.9-16.9,17.3-37.6,28-60.8,34-13.4,3.5-27,4.8-40.8,4.1-34.3-1.8-63.8-14.6-88.9-38-15-14-25.6-30.8-33-49.9-4.7-12-8.3-24.3-10.2-37-1.1-7.2-1.8-14.5-2.1-21.7-1.1-24,2.9-47.2,11.7-69.6,9.7-24.7,25-45.3,45.7-61.9,19.3-15.5,41.3-25.6,65.1-32,12.2-3.3,24.6-5.4,37.1-6.8,12.3-1.3,24.6-1.9,37-1.4-.8.1-1.6.3-2.4.4-.8.2-1.7.3-2.5.4-22.5,3.7-44.5,9.3-65.6,18.3-17.1,7.3-33,16.5-47,28.7-21.9,19.1-36.2,42.7-42.7,71.1-2,8.9-3.2,18-3.4,27.1-.7,24.8,3.8,48.5,14.8,70.8,13,26.4,33.7,44,61.9,52.5,12.3,3.7,25,4.8,37.8,3.3,17.4-2,33.3-7.8,47.2-18.6,15.2-11.8,24.5-27.3,27.3-46.4,2.8-20-1.3-38.5-13.7-54.7-7.7-10-18-16.1-30.3-18.9-12.8-3-25.2-1.8-37.1,4-11.9,5.9-20.2,15.1-23.3,28.1-3.4,14.2-1,27.4,8.8,38.5,12.8,14.4,35.9,14.9,49.1,1.4,5.6-5.7,7.7-12.8,7.3-20.6-.3-7-2.5-13.4-7.6-18.4-5.1-4.9-11.4-6.8-18.3-6.4-5.4.3-10.2,2.2-14.2,5.9-9.7,8.9-8.1,25.9,3.1,32.2,5.2,2.9,10.6,3.1,16.1,1.2.4-.1.8-.3,1.1-.5h0Z"></path><path class="cls-1" d="M340.4,213.6c0-3.9.3-25.8.3-32.3v-10c0-2.1-.3-20.9-.3-22.3,17.4,0,28.5.4,36,2.3,9.1,2.3,17.1,7.6,17.1,17.9s-11,24.6-33,28.3v2.4c0,1.8,0,11.7.2,13.7h-20.3ZM360.5,184.7c5.3-.8,12.4-5.4,12.4-12.9s-2.6-9.3-12.4-10v22.9Z"></path><path class="cls-1" d="M442.5,186.2c0,9.1.3,25.4.4,27.5h-21.1c.2-4,.3-25.3.3-27.7v-9.8c0-1.5-.3-24.9-.3-27.1h21.1c0,1.7-.4,16.4-.4,27.3v9.9Z"></path><path class="cls-1" d="M499.4,149c-.1,2.1-.5,20.8-.5,32.3v16.7c2.2,0,12.9,0,20.2-.3v16.9c-2.1,0-33.6-.9-40.9-.9.3-4.8.3-24.3.3-26.5v-12.1c0-1.5-.2-24.3-.4-26h21.3,0Z"></path><path class="cls-1" d="M538.3,206.9c2.7-4.7,27.9-47.3,36.8-61.2h.9c10.9,16.5,35.4,54.9,39.2,60.1l-18,10.7c-2.6-4.5-7.3-12.6-8.2-14.1l-27.4,1.5c-.7,1.3-4,8.4-6,12.6l-17.3-9.6h0ZM582.8,189.6c-2.6-5.2-6-11.7-7.7-15.4-2.2,4.4-5.4,11.1-7.7,16.2l15.4-.8h0Z"></path><path class="cls-1" d="M647.4,213.6c.2-2.4.3-15.3.3-25.2v-23.8c-4.4,0-17.3.5-20.1.6v-15.9c4.1.3,25.7.7,26.7.7h7.9c1.7,0,21.6-.3,26-.7v15.9c-1.7,0-18.6-.6-20-.6v25.3c0,9.4,0,21.9.3,23.7h-21Z"></path><path class="cls-1" d="M754.6,214.5c-3.3,0-36.1-.9-40.8-.9.3-4.8.3-24.3.3-26.4v-12.2c0-1.5-.2-23.4-.3-26,5.1,0,35.7-1.4,39-1.7l.3,15c-3.4,0-17.7.4-19.3.4v12c1.8,0,12.3-.5,16.3-.8l.3,14.6c-2.5,0-14.6-.3-16.6-.3v10.8c2.4,0,16.1.2,20.4-.2l.4,15.7h0Z"></path><path class="cls-1" d="M783.2,199.7c8.8.3,18.5-2.2,18.5-6.5s-1.5-2.9-8.9-7.1c-5.7-3.3-12.4-7.8-12.4-15.5s13.6-21.3,36.6-23.3l2.4,15.2c-11.4,0-17.1,1.9-17.1,5.6s2.9,3.6,8.8,6.5c4.8,2.4,12.7,6.5,12.7,14.7s-10.4,22.7-38.1,25.9l-2.5-15.6h0Z"></path><path class="cls-1" d="M911.9,185.8c0,3.4.3,26.5.4,27.8h-20.3c.3-2.2.2-31,.2-32.9v-7.5c0-2.7-.2-22.5-.4-24.2,12.5,0,25.1.2,33.3,1.3,13.5,1.7,20.7,7,20.7,15.4s-4.7,13.2-11.7,18.2c2.7,3.1,16.6,17.2,19,20.1l-16.7,12.6c-2.1-3.5-19.7-29-22.2-33,4-2.4,10.5-7.4,10.5-13.5s-3-8.4-12.8-8.5v24.2h0Z"></path><path class="cls-1" d="M969,206.9c2.7-4.7,27.9-47.3,36.8-61.2h.9c10.9,16.5,35.4,54.9,39.2,60.1l-18,10.7c-2.7-4.5-7.3-12.6-8.2-14.1l-27.4,1.5c-.7,1.3-4,8.4-6,12.6l-17.3-9.6h0ZM1013.5,189.6c-2.6-5.2-6-11.7-7.7-15.4-2.2,4.4-5.4,11.1-7.7,16.2l15.4-.8h0Z"></path><path class="cls-1" d="M1129.7,157c-3.4,5-31.2,49.9-38.1,60.4h-.9c-9.5-14.6-32.7-54.8-35.7-59.7l19.6-10.6c1.9,4.1,14.9,31.6,17.7,37.7,2.7-6.2,16.9-34.7,18.2-37.7l19.2,9.9h0Z"></path><path class="cls-1" d="M1195.1,214.5c-3.3,0-36.1-.9-40.8-.9.3-4.8.3-24.3.3-26.4v-12.2c0-1.5-.2-23.4-.3-26,5.1,0,35.7-1.4,39-1.7l.4,15c-3.3,0-17.6.4-19.3.4v12c1.8,0,12.3-.5,16.3-.8l.3,14.6c-2.5,0-14.6-.3-16.6-.3v10.8c2.4,0,16.1.2,20.4-.2l.4,15.7h0Z"></path><path class="cls-1" d="M1224.3,213.6c.6-6.5,2.7-53,3.6-65.1l.9-.5c12.9,9.4,42.1,31.6,45.3,33.9,0-5-.3-29.4-.2-33.3l18.6.5c-.5,7.1-1.4,20.7-2.2,33.9-.7,13.2-1.4,26.1-1.6,32l-.9.4c-10.9-7.1-43.8-33.1-45.1-34.2,0,3.7,0,30,.2,33l-18.6-.6h0Z"></path><path class="cls-1" d="M1321.3,199.7c8.8.3,18.5-2.2,18.5-6.5s-1.6-2.9-8.9-7.1c-5.8-3.3-12.4-7.8-12.4-15.5s13.6-21.3,36.6-23.3l2.5,15.2c-11.4,0-17.1,1.9-17.1,5.6s2.9,3.6,8.8,6.5c4.8,2.4,12.6,6.5,12.6,14.7s-10.5,22.7-38.1,25.9l-2.4-15.6h0Z"></path><path class="cls-1" d="M1401,213.6c.2-2.4.3-15.3.3-25.2v-23.8c-4.4,0-17.3.5-20.1.6v-15.9c4.1.3,25.7.7,26.7.7h7.9c1.7,0,21.6-.3,26-.7v15.9c-1.7,0-18.6-.6-20-.6v25.3c0,9.4,0,21.9.3,23.7h-21Z"></path><path class="cls-1" d="M1508.2,214.5c-3.3,0-36.1-.9-40.8-.9.3-4.8.3-24.3.3-26.4v-12.2c0-1.5-.2-23.4-.3-26,5.1,0,35.7-1.4,39-1.7l.3,15c-3.4,0-17.7.4-19.3.4v12c1.8,0,12.3-.5,16.3-.8l.3,14.6c-2.5,0-14.6-.3-16.6-.3v10.8c2.4,0,16.1.2,20.4-.2l.4,15.7h0Z"></path><path class="cls-1" d="M1561.1,186.2c0,9.1.3,25.4.4,27.5h-21.1c.2-4,.3-25.3.3-27.7v-9.8c0-1.5-.3-24.9-.3-27.1h21.1c-.1,1.7-.4,16.4-.4,27.3v9.9Z"></path><path class="cls-1" d="M1593.9,213.6c.6-6.5,2.7-53,3.6-65.1l.9-.5c12.9,9.4,42.1,31.6,45.3,33.9,0-5-.3-29.4-.2-33.3l18.6.5c-.5,7.1-1.4,20.7-2.2,33.9-.7,13.2-1.4,26.1-1.7,32l-.9.4c-10.9-7.1-43.8-33.1-45.1-34.2,0,3.7.1,30,.2,33l-18.6-.6h0Z"></path></g></g></svg>